# xmcd
#
# Track frame offsets: 
#        182
#        12872
#        25915
#        39220
#        51310
#        63737
#        75447
#        87412
#        99350
#        111467
#        123672
#        136982
#        150195
#        162197
#        175255
#        188552
#
# Disc length: 2674 seconds
#
# Revision: 0
# Processed by: cddbd v1.5.1PL2 Copyright (c) Steve Scherf et al.
# Submitted via: ExactAudioCopy v0.95a4
#
DISCID=c40a7010
DTITLE=Orgel Café - 100% Ambiance
DYEAR=1998
DGENRE=Orgel
TTITLE0=Itsy bitsy bikini, Mustapha
TTITLE1=I'm sorry, Sag warum
TTITLE2=Les enfants du Pirée, C'est écrit dans le ciel
TTITLE3=Milord, Valentino
TTITLE4=Ramona, O sole mio
TTITLE5=Kermiswals, Barcelona
TTITLE6=Zeeman, Caro mio
TTITLE7=Calcutta, papieren rozen
TTITLE8=Muss i denn, Banjo boy
TTITLE9=Je suis seule ce soir, C'est toi que j'aime
TTITLE10=Bras dessus bras dessous, La vie
TTITLE11=Trumpet boléro, Moonlight
TTITLE12=Cowboy Jimmy Jo, Een ring met twee bloedrode stenen
TTITLE13=Rosalie, Sucu sucu
TTITLE14=Stap in mijn boot, Achtien jaar
TTITLE15=Prosit, Rockin' Billy
EXTD=
EXTT0=
EXTT1=
EXTT2=
EXTT3=
EXTT4=
EXTT5=
EXTT6=
EXTT7=
EXTT8=
EXTT9=
EXTT10=
EXTT11=
EXTT12=
EXTT13=
EXTT14=
EXTT15=
PLAYORDER=
